<?xml version='1.0' encoding='utf-8'?>
<!DOCTYPE svg>
<!-- Generator: Adobe Illustrator 15.1.0, SVG Export Plug-In . SVG Version: 6.00 Build 0)  -->
<svg xmlns="http://www.w3.org/2000/svg"  xmlns:xml="http://www.w3.org/XML/1998/namespace" viewBox="0 0 22.368 37.701" gorn="0" x="0px" y="0px" height="0.523625in" enable-background="new 0.144 0 22.368 37.701" width="0.310667in" xml:space="preserve" version="1.1" id="Ebene_1">
    <desc>
        <referenceFile>sparkfun-sensors_qrd1114_breadboard.svg</referenceFile>
    </desc>
    <g  transform="translate(-0.144,0)">
        <g >
            <g  gorn="0.0.0.0" id="breadboard">
                <polygon  points="8.112,26.326 8.112,21.615 7.344,21.615 7.344,25.989 0.155,33.178 0.144,33.178 0.144,37.701 0.912,37.701 0.912,33.507 8.09,26.328 " fill="#999999"/>
                <polygon  points="9.745,21.615 9.745,28.225 7.358,30.612 7.344,30.615 7.344,37.701 8.112,37.701 8.112,30.944 9.745,29.311 9.745,29.319 10.512,28.555 10.512,21.615 " fill="#999999"/>
                <polygon  points="15.317,30.651 12.913,28.245 12.913,21.615 12.145,21.615 12.145,28.556 12.141,28.56 14.543,30.963 14.543,37.701 15.311,37.701 15.311,30.656 " fill="#999999"/>
                <polygon  points="22.534,33.231 22.512,33.208 22.512,33.178 22.481,33.178 15.311,26.008 15.311,21.615 14.543,21.615 14.543,26.326 21.745,33.527 21.745,37.701 22.512,37.701 22.512,33.253 " fill="#999999"/>
                <rect  x="2.4" y="13.032" height="11.021" width="17.856" fill="#1A1A1A"/>
                <g  gorn="0.0.0.0.5" id="breadboard">
                    <circle  cx="7.728" cy="36.677" r="1.636" gorn="0.0.0.0.5.0" fill="none" id="connector0pin"/>
                    <circle  cx="14.928" cy="36.677" r="1.635" gorn="0.0.0.0.5.1" fill="none" id="connector1pin"/>
                    <circle  cx="22.131" cy="36.677" r="1.635" gorn="0.0.0.0.5.2" fill="none" id="connector2pin"/>
                    <circle  cx="0.528" cy="36.678" r="1.635" gorn="0.0.0.0.5.3" fill="none" id="connector3pin"/>
                </g>
                <rect  x="2.4" y="0" height="13.031" width="17.856" fill="#333333"/>
                <rect  x="2.4" y="0" opacity="0.2" height="0.303" width="17.856" fill="#FFFFFF"/>
                <rect  x="2.4" y="12.881" opacity="0.2" height="0.303" width="17.856" fill="#FFFFFF"/>
                <g >
                    <rect  x="4.698" y="1.992" height="3.365" width="13.261" fill="#1A1A1A"/>
                    <rect  x="4.881" y="2.175" height="3" width="12.895" fill="#333333"/>
                    <rect  x="4.698" y="7.674" height="3.365" width="13.261" fill="#1A1A1A"/>
                    <rect  x="4.881" y="7.857" height="3" width="12.895" fill="#333333"/>
                </g>
                <rect  x="2.4" y="23.74" opacity="0.25" height="0.313" width="17.856"/>
                <g  transform="matrix(1 0 0 1 3.4697 18.3752)">
                    <text  font-family="'Droid Sans'" font-size="3.6195" fill="#999999">QRD1114</text>
                </g>
                <circle  cx="3.558" cy="9.428" r="0.375" fill="#1A1A1A"/>
                <rect  x="7.344" y="24.054" opacity="0.25" height="1.796" width="0.768"/>
                <rect  x="9.745" y="24.054" opacity="0.25" height="1.796" width="0.768"/>
                <rect  x="12.141" y="24.054" opacity="0.25" height="1.796" width="0.768"/>
                <rect  x="14.544" y="24.054" opacity="0.25" height="1.796" width="0.768"/>
            </g>
        </g>
    </g>
</svg>
