<?xml version='1.0' encoding='utf-8'?>
<!DOCTYPE svg>
<!-- Generator: Adobe Illustrator 16.0.0, SVG Export Plug-In . SVG Version: 6.00 Build 0)  -->
<svg xmlns="http://www.w3.org/2000/svg"  xmlns:xml="http://www.w3.org/XML/1998/namespace" viewBox="0 0 43.977 44.04" gorn="0" x="0px" y="0px" height="0.611667in" enable-background="new 0 0 43.977 44.04" width="0.610792in" xml:space="preserve" version="1.1" id="Layer_1">
    <desc>
        <referenceFile>sparkfun-sensors_qrd1114_schematic.svg</referenceFile>
    </desc>
    <g  gorn="0.0" id="schematic">
        <rect stroke-linejoin="round"  stroke-linecap="round" stroke="#000000" x="0.36" y="7.665" height="28.8" stroke-width="0.9" width="43.201" fill="#FFFFFF"/>
        <line  y1="7.665" y2="23.863" stroke-linecap="round" x1="11.16" x2="11.16" stroke="#000000" stroke-width="0.5" fill="none"/>
        <line  y1="23.863" y2="36.465" stroke-linecap="round" x1="11.16" x2="11.16" stroke="#000000" stroke-width="0.5" fill="none"/>
        <line  y1="13.064" y2="20.265" stroke-linecap="round" x1="25.561" x2="25.561" stroke="#000000" stroke-width="0.5" fill="none"/>
        <line  y1="20.265" y2="23.863" stroke-linecap="round" x1="25.561" x2="25.561" stroke="#000000" stroke-width="0.5" fill="none"/>
        <line  y1="23.863" y2="31.064" stroke-linecap="round" x1="25.561" x2="25.561" stroke="#000000" stroke-width="0.5" fill="none"/>
        <line  y1="7.665" y2="13.064" stroke-linecap="round" x1="32.76" x2="32.76" stroke="#000000" stroke-width="0.5" fill="none"/>
        <line  y1="13.064" y2="20.265" stroke-linecap="round" x1="32.76" x2="25.561" stroke="#000000" stroke-width="0.5" fill="none"/>
        <line  y1="23.863" y2="31.064" stroke-linecap="round" x1="25.561" x2="32.76" stroke="#000000" stroke-width="0.5" fill="none"/>
        <line  y1="31.064" y2="36.465" stroke-linecap="round" x1="32.76" x2="32.76" stroke="#000000" stroke-width="0.5" fill="none"/>
        <line  y1="23.863" y2="23.863" stroke-linecap="round" x1="7.56" x2="14.76" stroke="#000000" stroke-width="0.5" fill="none"/>
        <g  transform="matrix(1 0 0 1 3.9607 14.8647)">
            <text  font-family="'DroidSans'" font-size="4.252" fill="#505050">A</text>
        </g>
        <g  transform="matrix(1 0 0 1 3.9607 32.8647)">
            <text  font-family="'DroidSans'" font-size="4.252" fill="#505050">K</text>
        </g>
        <g  transform="matrix(1 0 0 1 36.3582 14.8647)">
            <text  font-family="'DroidSans'" font-size="4.252" fill="#505050">C</text>
        </g>
        <g  transform="matrix(1 0 0 1 36.3582 32.8647)">
            <text  font-family="'DroidSans'" font-size="4.252" fill="#505050">E</text>
        </g>
        <line  y1="43.665" y2="36.465" stroke-linecap="round" x1="32.76" x2="32.76" stroke="#787878" gorn="0.0.15" stroke-width="0.75" fill="none" id="connector1pin"/>
        <polygon  points="33.113,43.02 33.129,44.04 32.41,44.04 32.41,43.02 " gorn="0.0.16" fill="none" id="connector1terminal"/>
        <g  transform="translate(11.1866,17.89)">
            <g >
                <g  transform="rotate(270)">
                    <g >
                        <g  transform="matrix(1 0 0 1 -22.8634 20.5231)">
                            <text  font-family="'DroidSans'" font-size="2.5" fill="#8C8C8C">2</text>
                        </g>
                    </g>
                </g>
            </g>
        </g>
        <line  y1="0.464" y2="7.665" stroke-linecap="round" x1="32.76" x2="32.76" stroke="#787878" gorn="0.0.18" stroke-width="0.75" fill="none" id="connector0pin"/>
        <polygon  points="32.41,1.004 32.394,0 33.113,0 33.129,1.004 " gorn="0.0.19" fill="none" id="connector0terminal"/>
        <g  transform="translate(11.1866,5.19)">
            <g >
                <g  transform="rotate(270)">
                    <g >
                        <g  transform="matrix(1 0 0 1 0.4385 20.5231)">
                            <text  font-family="'DroidSans'" font-size="2.5" fill="#8C8C8C">1</text>
                        </g>
                    </g>
                </g>
            </g>
        </g>
        <line  y1="43.665" y2="36.465" stroke-linecap="round" x1="11.16" x2="11.16" stroke="#787878" gorn="0.0.21" stroke-width="0.75" fill="none" id="connector3pin"/>
        <path  d="M11.519,44.04l-0.016-1.004l-0.734-0.016l0.016,1.02H11.519z" gorn="0.0.22" fill="none" id="connector3terminal"/>
        <g  transform="translate(3.56658,17.89)">
            <g >
                <g  transform="rotate(270)">
                    <g >
                        <g  transform="matrix(1 0 0 1 -22.8634 6.5416)">
                            <text  font-family="'DroidSans'" font-size="2.5" fill="#8C8C8C">4</text>
                        </g>
                    </g>
                </g>
            </g>
        </g>
        <line  y1="0.464" y2="7.665" stroke-linecap="round" x1="11.16" x2="11.16" stroke="#787878" gorn="0.0.24" stroke-width="0.75" fill="none" id="connector2pin"/>
        <path  d="M10.801,0l0.031,1.02h0.672L11.457,0H10.801z" gorn="0.0.25" fill="none" id="connector2terminal"/>
        <g  transform="translate(3.56658,5.19)">
            <g >
                <g  transform="rotate(270)">
                    <g >
                        <g  transform="matrix(1 0 0 1 0.4385 6.5416)">
                            <text  font-family="'DroidSans'" font-size="2.5" fill="#8C8C8C">3</text>
                        </g>
                    </g>
                </g>
            </g>
        </g>
        <path  d="M11.16,23.863l-3.6-5.398h7.198L11.16,23.863z"/>
        <path  d="M32.76,31.064l-1.8-3.601l-1.8,1.801L32.76,31.064z"/>
    </g>
</svg>
