<?xml version='1.0' encoding='UTF-8'?>
<!DOCTYPE svg>
<!-- Creator: CorelDRAW -->
<svg xmlns="http://www.w3.org/2000/svg"  xml:space="preserve" viewBox="0 0 13 23" xmlns:xml="http://www.w3.org/XML/1998/namespace" style="shape-rendering:geometricPrecision; text-rendering:geometricPrecision; image-rendering:optimizeQuality; fill-rule:evenodd; clip-rule:evenodd" height="23mm" width="13mm">
    <desc >
        <referenceFile >Humidity_and_Temperature_Sensor_RHT03_6.svg</referenceFile>
    </desc>
    <defs >
        <style  type="text/css"><![CDATA[
    .str0 {stroke:#1E1E1E;stroke-width:0.0762}
    .str3 {stroke:#78786E;stroke-width:0.0762}
    .str2 {stroke:#78786E;stroke-width:0.25}
    .str1 {stroke:#8C8C8C;stroke-width:0.762}
    .fil3 {fill:none}
    .fil1 {fill:#1E1E1E}
    .fil6 {fill:#323232}
    .fil2 {fill:#C3C3C3}
    .fil4 {fill:#CBCBCB}
    .fil0 {fill:#E6E6E6}
    .fil5 {fill:#F0F0F0}
    .fil7 {fill:url(#id0)}
   ]]></style>
        <linearGradient y1="4.93"  y2="4.238" x1="4.6119" x2="4.6119" id="id0" gradientUnits="userSpaceOnUse">
            <stop offset="0"  style="stop-color:#A8A89E"/>
            <stop offset="1"  style="stop-color:white"/>
        </linearGradient>
    </defs>
    <g  gorn="0.2" id="Capa_x0020_1">
        <metadata  id="CorelCorpID_0Corel-Layer"/>
        <g  gorn="0.2.1" id="_144824656">
            <g >
                <rect y="0.6134"  gorn="0.2.1.0.0" rx="2.8586" ry="2.8586" height="16.6163" width="10.9479" id="_144825976" class="fil0" x="0.8853"/>
                <ellipse  cx="6.43368" gorn="0.2.1.0.1" cy="2.8523" rx="1.03627" ry="1.071" id="_144821416" class="fil1 str0"/>
            </g>
            <g >
                <rect y="6.52589"  gorn="0.2.1.1.0" height="10.9803" width="11.2103" id="_144822136" class="fil2" x="0.9914"/>
                <rect y="4.37038"  gorn="0.2.1.1.1" rx="0.0684" ry="0.0684" height="3.87821" width="0.9294" id="_144818704" class="fil2" x="0.9886"/>
                <rect y="4.37038"  gorn="0.2.1.1.2" rx="0.0684" ry="0.0684" height="3.87821" width="0.9181" id="_144826744" class="fil2" x="11.2886"/>
                <rect y="15.4243"  gorn="0.2.1.1.3" rx="0.228" ry="0.228" height="3.65203" width="0.9294" id="_144823288" class="fil2" x="0.9886"/>
                <rect y="17.052"  gorn="0.2.1.1.4" rx="0.228" ry="0.228" height="2.02432" width="1.6246" id="_144827656" class="fil2" x="10.577"/>
                <rect y="5.3063"  gorn="0.2.1.1.5" height="12.8996" width="9.76769" id="_144829120" class="fil2" x="1.71401"/>
                <rect y="4.3487"  gorn="0.2.1.1.6" height="14.7276" width="10.3351" id="_144820960" class="fil2" x="1.3713"/>
            </g>
            <g >
                <line y1="18.9344"  y2="22.1885" gorn="0.2.1.2.0" x1="7.5868" x2="7.5894" id="_144824728" class="fil3 str1"/>
                <line y1="18.9322"  y2="22.1863" gorn="0.2.1.2.1" x1="10.1268" x2="10.1294" id="_144822016" class="fil3 str1"/>
                <line y1="18.9322"  y2="22.1863" gorn="0.2.1.2.2" x1="2.5068" x2="2.5094" id="_144829456" class="fil3 str1"/>
                <line y1="18.9322"  y2="22.1863" gorn="0.2.1.2.3" x1="5.0468" x2="5.0494" id="_144819832" class="fil3 str1"/>
            </g>
            <g >
                <g >
                    <rect y="6.87295"  gorn="0.2.1.3.0.0" height="0.9398" width="2.5327" id="_144826048" class="fil4" x="9.3413"/>
                    <rect y="8.77295"  gorn="0.2.1.3.0.1" height="0.9398" width="2.5327" id="_144823816" class="fil4" x="9.3413"/>
                    <rect y="10.6729"  gorn="0.2.1.3.0.2" height="0.9398" width="2.5314" id="_144826288" class="fil4" x="9.3426"/>
                    <rect y="12.5729"  gorn="0.2.1.3.0.3" height="0.9398" width="2.5326" id="_144823936" class="fil4" x="9.3414"/>
                    <rect y="14.4729"  gorn="0.2.1.3.0.4" height="0.9398" width="2.5327" id="_144820816" class="fil4" x="9.3413"/>
                </g>
                <g >
                    <rect y="6.87295"  gorn="0.2.1.3.1.0" height="0.9398" width="0.704" id="_144817768" class="fil4" x="0.8652"/>
                    <rect y="8.77295"  gorn="0.2.1.3.1.1" height="0.9398" width="0.704" id="_144819880" class="fil4" x="0.8652"/>
                    <rect y="10.6729"  gorn="0.2.1.3.1.2" height="0.9398" width="0.704" id="_144822112" class="fil4" x="0.8652"/>
                    <rect y="12.5729"  gorn="0.2.1.3.1.3" height="0.9398" width="0.704" id="_144820576" class="fil4" x="0.8652"/>
                    <rect y="14.4729"  gorn="0.2.1.3.1.4" height="0.9398" width="0.704" id="_144821872" class="fil4" x="0.8652"/>
                </g>
            </g>
            <g >
                <g >
                    <rect y="6.87273"  gorn="0.2.1.4.0.0" height="0.939822" width="0.9398" id="_144818008" class="fil1" x="4.143"/>
                    <rect y="6.87273"  gorn="0.2.1.4.0.1" height="0.939822" width="0.9398" id="_144821656" class="fil1" x="5.943"/>
                    <rect y="6.87273"  gorn="0.2.1.4.0.2" height="0.939822" width="0.9398" id="_144829816" class="fil1" x="7.643"/>
                    <path  gorn="0.2.1.4.0.3" d="M9.343 6.8727l1.5828 0c0.2071,0 0.3763,0.0839 0.3763,0.1866l0 0.5666c0,0.1027 -0.1692,0.1867 -0.3763,0.1867l-1.5828 0 0 -0.9399z" id="_144831328" class="fil1"/>
                    <rect y="6.87273"  gorn="0.2.1.4.0.4" height="0.939822" width="1.7133" id="_144827224" class="fil1" x="1.5695"/>
                </g>
                <g >
                    <rect y="8.77273"  gorn="0.2.1.4.1.0" height="0.939822" width="0.9398" id="_144824824" class="fil1" x="4.143"/>
                    <rect y="8.77273"  gorn="0.2.1.4.1.1" height="0.939822" width="0.9398" id="_144817504" class="fil1" x="5.943"/>
                    <rect y="8.77273"  gorn="0.2.1.4.1.2" height="0.939822" width="0.9398" id="_144825928" class="fil1" x="7.643"/>
                    <path  gorn="0.2.1.4.1.3" d="M9.343 8.7727l1.5828 0c0.2071,0 0.3763,0.0839 0.3763,0.1866l0 0.5666c0,0.1027 -0.1692,0.1867 -0.3763,0.1867l-1.5828 0 0 -0.9399z" id="_144829048" class="fil1"/>
                    <rect y="8.77273"  gorn="0.2.1.4.1.4" height="0.939822" width="1.7133" id="_144825112" class="fil1" x="1.5695"/>
                </g>
                <g >
                    <rect y="10.6727"  gorn="0.2.1.4.2.0" height="0.939822" width="0.9398" id="_144821512" class="fil1" x="4.143"/>
                    <rect y="10.6727"  gorn="0.2.1.4.2.1" height="0.939822" width="0.9398" id="_144822784" class="fil1" x="5.943"/>
                    <rect y="10.6727"  gorn="0.2.1.4.2.2" height="0.939822" width="0.9398" id="_144822664" class="fil1" x="7.643"/>
                    <path  gorn="0.2.1.4.2.3" d="M9.343 10.6727l1.5828 0c0.2071,0 0.3763,0.0839 0.3763,0.1866l0 0.5666c0,0.1027 -0.1692,0.1867 -0.3763,0.1867l-1.5828 0 0 -0.9399z" id="_144820672" class="fil1"/>
                    <rect y="10.6727"  gorn="0.2.1.4.2.4" height="0.939822" width="1.7133" id="_144824752" class="fil1" x="1.5695"/>
                </g>
                <g >
                    <rect y="12.5727"  gorn="0.2.1.4.3.0" height="0.939822" width="0.9398" id="_144828472" class="fil1" x="4.143"/>
                    <rect y="12.5727"  gorn="0.2.1.4.3.1" height="0.939822" width="0.9398" id="_144821968" class="fil1" x="5.943"/>
                    <rect y="12.5727"  gorn="0.2.1.4.3.2" height="0.939822" width="0.9398" id="_144828256" class="fil1" x="7.643"/>
                    <path  gorn="0.2.1.4.3.3" d="M9.343 12.5727l1.5828 0c0.2071,0 0.3763,0.0839 0.3763,0.1866l0 0.5666c0,0.1027 -0.1692,0.1867 -0.3763,0.1867l-1.5828 0 0 -0.9399z" id="_144828376" class="fil1"/>
                    <rect y="12.5727"  gorn="0.2.1.4.3.4" height="0.939822" width="1.7133" id="_144823504" class="fil1" x="1.5695"/>
                </g>
                <g >
                    <rect y="14.4727"  gorn="0.2.1.4.4.0" height="0.939822" width="0.9398" id="_144825784" class="fil1" x="4.143"/>
                    <rect y="14.4727"  gorn="0.2.1.4.4.1" height="0.939822" width="0.9398" id="_144826936" class="fil1" x="5.943"/>
                    <rect y="14.4727"  gorn="0.2.1.4.4.2" height="0.939822" width="0.9398" id="_144826912" class="fil1" x="7.643"/>
                    <path  gorn="0.2.1.4.4.3" d="M9.343 14.4727l1.5828 0c0.2071,0 0.3763,0.0839 0.3763,0.1866l0 0.5666c0,0.1027 -0.1692,0.1867 -0.3763,0.1867l-1.5828 0 0 -0.9399z" id="_144827152" class="fil1"/>
                    <rect y="14.4727"  gorn="0.2.1.4.4.4" height="0.939822" width="1.7133" id="_144827080" class="fil1" x="1.5695"/>
                </g>
            </g>
            <g >
                <g >
                    <g >
                        <g >
                            <rect y="4.23815"  gorn="0.2.1.5.0.0.0.0" height="13.9826" width="0.8599" id="_144817024" class="fil5" x="3.2832"/>
                            <rect y="3.9564"  gorn="0.2.1.5.0.0.0.1" rx="0.0588" ry="0.0588" height="0.749038" width="0.8548" id="_144817168" class="fil5" x="3.28745"/>
                        </g>
                        <g >
                            <rect y="4.23815"  gorn="0.2.1.5.0.0.1.0" height="13.9826" width="0.8599" id="_144817240" class="fil5" x="5.0832"/>
                            <rect y="3.9564"  gorn="0.2.1.5.0.0.1.1" rx="0.0588" ry="0.0588" height="0.749038" width="0.8548" id="_144816328" class="fil5" x="5.08745"/>
                        </g>
                        <g >
                            <rect y="4.23815"  gorn="0.2.1.5.0.0.2.0" height="13.9826" width="0.8599" id="_144815368" class="fil5" x="6.8832"/>
                            <rect y="3.9564"  gorn="0.2.1.5.0.0.2.1" rx="0.0588" ry="0.0588" height="0.749038" width="0.8548" id="_144818248" class="fil5" x="6.88745"/>
                        </g>
                        <g >
                            <rect y="4.23815"  gorn="0.2.1.5.0.0.3.0" height="13.9826" width="0.8599" id="_144817960" class="fil5" x="8.5832"/>
                            <rect y="3.9564"  gorn="0.2.1.5.0.0.3.1" rx="0.0588" ry="0.0588" height="0.749038" width="0.8548" id="_144818128" class="fil5" x="8.58745"/>
                        </g>
                    </g>
                    <g >
                        <g >
                            <rect y="5.6144"  gorn="0.2.1.5.0.1.0.0" height="1.2554" width="10.8352" id="_144817864" class="fil5" x="0.9928"/>
                            <rect y="5.6173"  gorn="0.2.1.5.0.1.0.1" rx="0.0904" ry="0.0904" height="1.2553" width="1.2051" id="_144817720" class="fil5" x="0.666"/>
                            <rect y="5.6173"  gorn="0.2.1.5.0.1.0.2" rx="0.0904" ry="0.0904" height="1.2553" width="1.2561" id="_144817408" class="fil5" x="10.766"/>
                        </g>
                        <g >
                            <rect y="7.8281"  gorn="0.2.1.5.0.1.1.0" height="0.940802" width="10.8352" id="_144817744" class="fil5" x="0.9928"/>
                            <rect y="7.83027"  gorn="0.2.1.5.0.1.1.1" rx="0.0904" ry="0.0904" height="0.940727" width="1.2051" id="_144828448" class="fil5" x="0.666"/>
                            <rect y="7.83027"  gorn="0.2.1.5.0.1.1.2" rx="0.0904" ry="0.0904" height="0.940727" width="1.2561" id="_144815320" class="fil5" x="10.766"/>
                        </g>
                        <g >
                            <rect y="9.7139"  gorn="0.2.1.5.0.1.2.0" height="0.95497" width="10.8352" id="_144826264" class="fil5" x="0.9928"/>
                            <rect y="9.71611"  gorn="0.2.1.5.0.1.2.1" rx="0.0904" ry="0.0904" height="0.954894" width="1.2051" id="_144825736" class="fil5" x="0.666"/>
                            <rect y="9.71611"  gorn="0.2.1.5.0.1.2.2" rx="0.0904" ry="0.0904" height="0.954894" width="1.2561" id="_144821320" class="fil5" x="10.766"/>
                        </g>
                        <g >
                            <rect y="11.6139"  gorn="0.2.1.5.0.1.3.0" height="0.95497" width="10.8352" id="_144828688" class="fil5" x="0.9928"/>
                            <rect y="11.6161"  gorn="0.2.1.5.0.1.3.1" rx="0.0904" ry="0.0904" height="0.954894" width="1.2051" id="_144819808" class="fil5" x="0.666"/>
                            <rect y="11.6161"  gorn="0.2.1.5.0.1.3.2" rx="0.0904" ry="0.0904" height="0.954894" width="1.2561" id="_144820288" class="fil5" x="10.766"/>
                        </g>
                        <g >
                            <rect y="13.5139"  gorn="0.2.1.5.0.1.4.0" height="0.95497" width="10.8352" id="_144820888" class="fil5" x="0.9928"/>
                            <rect y="13.5161"  gorn="0.2.1.5.0.1.4.1" rx="0.0904" ry="0.0904" height="0.954894" width="1.2051" id="_144819568" class="fil5" x="0.666"/>
                            <rect y="13.5161"  gorn="0.2.1.5.0.1.4.2" rx="0.0904" ry="0.0904" height="0.954894" width="1.2561" id="_144818536" class="fil5" x="10.766"/>
                        </g>
                    </g>
                </g>
                <g >
                    <g >
                        <rect y="15.9243"  gorn="0.2.1.5.1.0.0" height="2.5827" width="11.2103" id="_144827800" class="fil5" x="0.7914"/>
                        <rect y="15.4173"  gorn="0.2.1.5.1.0.1" rx="0.0684" ry="0.0684" height="0.9122" width="0.9294" id="_144826000" class="fil5" x="0.7886"/>
                        <rect y="15.4173"  gorn="0.2.1.5.1.0.2" rx="0.0684" ry="0.0684" height="0.9122" width="0.9181" id="_144827488" class="fil5" x="11.0886"/>
                        <rect y="18.0173"  gorn="0.2.1.5.1.0.3" rx="0.228" ry="0.228" height="0.859" width="0.9294" id="_144825808" class="fil5" x="0.7886"/>
                        <rect y="18.0173"  gorn="0.2.1.5.1.0.4" rx="0.228" ry="0.228" height="0.859" width="0.913" id="_144825208" class="fil5" x="11.0886"/>
                        <rect y="15.6374"  gorn="0.2.1.5.1.0.5" height="3.03412" width="9.76769" id="_144821752" class="fil5" x="1.51401"/>
                        <rect y="15.4122"  gorn="0.2.1.5.1.0.6" height="3.4641" width="10.3351" id="_144821560" class="fil5" x="1.1713"/>
                    </g>
                    <g >
                        <rect y="3.9541"  gorn="0.2.1.5.1.1.0" rx="0.4468" ry="0.4468" height="2.2342" width="3.1861" id="_144822040" class="fil5" x="0.6711"/>
                        <rect y="3.9541"  gorn="0.2.1.5.1.1.1" rx="0.4468" ry="0.4468" height="2.2342" width="3.1505" id="_144822280" class="fil5" x="8.8665"/>
                    </g>
                </g>
            </g>
            <g >
                <g >
                    <g >
                        <rect y="4.9226"  gorn="0.2.1.6.0.0.0" height="0.6921" width="0.9369" id="_144827680" class="fil6" x="4.1435"/>
                        <rect y="4.9226"  gorn="0.2.1.6.0.0.1" height="0.6921" width="0.9369" id="_144824176" class="fil6" x="5.9435"/>
                        <rect y="4.9226"  gorn="0.2.1.6.0.0.2" height="0.6921" width="0.7951" id="_144822616" class="fil6" x="7.7457"/>
                    </g>
                    <g >
                        <path  gorn="0.2.1.6.0.1.0" d="M4.1431 5.2274c0.9396,0 0.9396,0 0.9396,0" id="_144828880" class="fil3 str2"/>
                        <path  gorn="0.2.1.6.0.1.1" d="M5.9433 5.1839c0.2943,-0.0018 0.4559,0.1418 0.4746,0.4285" id="_144823480" class="fil3 str3"/>
                    </g>
                </g>
                <g >
                    <rect y="4.238"  gorn="0.2.1.6.1.0" height="0.6921" width="0.9369" id="_144817384" class="fil7" x="4.1435"/>
                    <rect y="4.238"  gorn="0.2.1.6.1.1" height="0.6921" width="0.9369" id="_144825040" class="fil7" x="5.9435"/>
                    <rect y="4.238"  gorn="0.2.1.6.1.2" height="0.6921" width="0.7951" id="_144817648" class="fil7" x="7.7457"/>
                </g>
            </g>
        </g>
    </g>
</svg>
